<svg id="Layer_1" data-name="Layer 1" xmlns="http://www.w3.org/2000/svg" xmlns:xlink="http://www.w3.org/1999/xlink" viewBox="0 0 800 800"><defs><style>.cls-1{fill:none;}.cls-2{clip-path:url(#clip-path);}.cls-3{clip-path:url(#clip-path-2);}.cls-4{fill:#9f8cff;}.cls-5{fill:url(#linear-gradient);}.cls-6{fill:url(#linear-gradient-2);}.cls-7{fill:#3f3b48;}.cls-8{fill:#87878c;}.cls-9{fill:#a4a4a6;}.cls-10{fill:#f2f2f2;}.cls-11{fill:#b5b5b5;opacity:0.33;}.cls-12{fill:#231c14;}.cls-13{fill:#f0d94f;}.cls-14{fill:#fefefe;}.cls-15{fill:#f20530;}.cls-16{fill:#bf303c;}</style><clipPath id="clip-path"><rect class="cls-1" x="42.34" y="42.34" width="715.32" height="715.32" rx="108.96" transform="translate(800 0) rotate(90)"/></clipPath><clipPath id="clip-path-2"><rect class="cls-1" width="800" height="800"/></clipPath><linearGradient id="linear-gradient" x1="509.94" y1="396.33" x2="840.22" y2="396.33" gradientUnits="userSpaceOnUse"><stop offset="0" stop-color="#c7b2ff"/><stop offset="1" stop-color="#9f8cff"/></linearGradient><linearGradient id="linear-gradient-2" x1="-4013.5" y1="396.33" x2="-3683.22" y2="396.33" gradientTransform="matrix(-1, 0, 0, 1, -3709.64, 0)" xlink:href="#linear-gradient"/></defs><title>Robot 7</title><g class="cls-2"><g class="cls-3"><rect class="cls-4" x="-44.92" y="-52.84" width="877.21" height="885.14"/><path class="cls-5" d="M819.08-89.83,509.94,219.3V552.22L840.22,882.49S815.12-85.87,819.08-89.83Z"/><path class="cls-6" d="M-5.28-89.83,303.85,219.3V552.22L-26.42,882.49S-1.32-85.87-5.28-89.83Z"/><path class="cls-7" d="M211.68,476h376a14.66,14.66,0,0,1,14.66,14.66v88.41a0,0,0,0,1,0,0H197a0,0,0,0,1,0,0V490.67A14.66,14.66,0,0,1,211.68,476Z"/><path class="cls-8" d="M216.1,418.18H583.9a0,0,0,0,1,0,0v81.87a47.06,47.06,0,0,1-47.06,47.06H263.16a47.06,47.06,0,0,1-47.06-47.06V418.18A0,0,0,0,1,216.1,418.18Z"/><polygon class="cls-7" points="429.21 565.03 370.79 565.03 329.4 445.08 470.6 445.08 429.21 565.03"/><polygon class="cls-7" points="650.83 289.59 666.56 183.05 670.35 304.51 650.83 289.59"/><path class="cls-7" d="M678.83,341l-37.55-.65V253.68L654,258a18.24,18.24,0,0,1,22.71,12.23l14.4,48.05A18.24,18.24,0,0,1,678.83,341Z"/><polygon class="cls-7" points="149.11 289.59 133.38 183.05 129.59 304.51 149.11 289.59"/><path class="cls-7" d="M121.11,341l37.55-.65V253.68L146,258a18.24,18.24,0,0,0-22.71,12.23l-14.4,48.05A18.24,18.24,0,0,0,121.11,341Z"/><rect class="cls-9" x="208" y="238.58" width="384" height="244.07"/><path class="cls-7" d="M459.43,396c0,51.71-118.86,51.71-118.86,0V370.88H459.43Z"/><path class="cls-10" d="M709.59,435.75l-84.2,42A202.32,202.32,0,0,1,422.85,275.23V231.72H648.59l47,157.33Z"/><path class="cls-11" d="M709.59,435.75l-84.2,42a202.41,202.41,0,0,1-63.8-10.25c0-.15,0-.29,0-.43-.82-8.28,5.54-15.92,13.14-19.32s16.19-3.49,24.52-3.52l25.93-.12c2.35-18,24.26-30.48,41-23.27-1.46-6.15-2.93-12.48-2.15-18.76s4.26-12.62,10.14-15c3.85-1.56,8.19-1.23,12.28-.47a66.41,66.41,0,0,1,9.27,2.41Z"/><circle class="cls-8" cx="530.16" cy="324.41" r="80.33" transform="translate(125.01 795.76) rotate(-80.78)"/><circle class="cls-12" cx="530.16" cy="324.41" r="70.73"/><circle class="cls-13" cx="530.16" cy="324.41" r="52.24"/><circle class="cls-8" cx="530.16" cy="324.41" r="43.81"/><circle class="cls-14" cx="530.16" cy="323.25" r="19.35"/><path class="cls-10" d="M90.41,435.75l84.21,42c111.86,0,202.54-90.68,202.54-202.54v-43.5H151.41Z"/><circle class="cls-8" cx="269.84" cy="324.41" r="80.33" transform="translate(-48.48 47.41) rotate(-9.22)"/><circle class="cls-12" cx="269.84" cy="324.41" r="70.73"/><circle class="cls-15" cx="264.36" cy="321.14" r="52.41"/><circle class="cls-13" cx="264.36" cy="321.14" r="32.3"/><circle class="cls-14" cx="279.46" cy="324.41" r="19.35"/><rect class="cls-7" x="224.06" y="218.27" width="80.61" height="17.07" rx="6.42"/><rect class="cls-7" x="489.86" y="218.27" width="80.61" height="17.07" rx="6.42"/><path class="cls-16" d="M356.19,524.23h86.41a0,0,0,0,1,0,0v55.62a37.1,37.1,0,0,1-37.1,37.1H393.29a37.1,37.1,0,0,1-37.1-37.1V524.23a0,0,0,0,1,0,0Z"/></g></g></svg>