<svg id="Layer_1" data-name="Layer 1" xmlns="http://www.w3.org/2000/svg" xmlns:xlink="http://www.w3.org/1999/xlink" viewBox="0 0 800 800"><defs><style>.cls-1,.cls-12{fill:none;}.cls-2{clip-path:url(#clip-path);}.cls-3{clip-path:url(#clip-path-2);}.cls-4{fill:#009bff;}.cls-5{fill:url(#linear-gradient);}.cls-6{fill:url(#linear-gradient-2);}.cls-7{fill:#593609;}.cls-8{fill:#a43d23;}.cls-9{fill:#ff8f00;}.cls-10{fill:#d96704;}.cls-11{fill:#231c14;}.cls-12{stroke:#fff;stroke-linecap:round;stroke-miterlimit:10;stroke-width:4.92px;}.cls-13{fill:#fff;}.cls-14{fill:#d92131;}.cls-15{fill:#f0d94f;}.cls-16{fill:#81887c;}.cls-17{fill:#f2f2f2;}.cls-18{fill:#b2b7af;}.cls-19{fill:#86510d;opacity:0.33;}</style><clipPath id="clip-path"><rect class="cls-1" x="42.34" y="42.34" width="715.32" height="715.32" rx="108.96" transform="translate(800 0) rotate(90)"/></clipPath><clipPath id="clip-path-2"><rect class="cls-1" width="800" height="800"/></clipPath><linearGradient id="linear-gradient" x1="509.94" y1="396.33" x2="840.22" y2="396.33" gradientUnits="userSpaceOnUse"><stop offset="0" stop-color="#00e6ff"/><stop offset="1" stop-color="#009bff"/></linearGradient><linearGradient id="linear-gradient-2" x1="-1630.24" y1="396.33" x2="-1299.96" y2="396.33" gradientTransform="matrix(-1, 0, 0, 1, -1326.38, 0)" xlink:href="#linear-gradient"/></defs><title>Robot 2</title><g class="cls-2"><g class="cls-3"><rect class="cls-4" x="-44.92" y="-52.84" width="877.21" height="885.14"/><path class="cls-5" d="M819.08-89.83,509.94,219.3V552.22L840.22,882.49S815.12-85.87,819.08-89.83Z"/><path class="cls-6" d="M-5.28-89.83,303.85,219.3V552.22L-26.42,882.49S-1.32-85.87-5.28-89.83Z"/><rect class="cls-7" x="292.73" y="616.84" width="211.82" height="49.34"/><rect class="cls-8" x="524.83" y="168.3" width="122.97" height="61.48" transform="translate(312.47 -356.29) rotate(45)"/><rect class="cls-8" x="152.2" y="168.3" width="122.97" height="61.48" transform="translate(505.52 188.69) rotate(135)"/><polygon class="cls-9" points="644.58 466.39 644.58 511.22 627.53 527.9 520.41 632.63 275.29 632.63 223.7 578.69 152.7 504.42 152.7 466.39 169.77 466.39 169.77 264.13 152.84 264.13 275.29 140.75 520.41 140.75 644.41 264.13 627.53 264.13 627.53 466.39 644.58 466.39"/><path class="cls-10" d="M264.4,414.66a76.7,76.7,0,0,1,0-153.4H532.89a76.7,76.7,0,1,1,0,153.4Z"/><path class="cls-11" d="M532.89,273.56H264.4A64.4,64.4,0,0,0,200,338h0a64.4,64.4,0,0,0,64.4,64.4H532.89a64.4,64.4,0,0,0,64.4-64.4h0A64.4,64.4,0,0,0,532.89,273.56Z"/><path class="cls-12" d="M250.43,287.44c-31.68,11.77-43.82,54.82-24.76,81.93"/><path class="cls-12" d="M301.6,285.25c-5.3-.05-33.1-.11-38.39-.18"/><path class="cls-13" d="M490.36,320.3v35.32a17,17,0,0,1-17,17h-2.09a17,17,0,0,1-17-17V320.3a17,17,0,0,1,17-17h2.09A17,17,0,0,1,490.36,320.3Z"/><path class="cls-14" d="M490.35,320.29v25.83a16.92,16.92,0,0,1-9.1,2.64h-2.08a17,17,0,0,1-17-17V306a16.66,16.66,0,0,1,5.88-2.35,17.15,17.15,0,0,1,3.22-.31h2.09A17,17,0,0,1,490.35,320.29Z"/><path class="cls-15" d="M490.35,320.29v15.35a15.74,15.74,0,0,1-4.57.67h-1.93a15.76,15.76,0,0,1-15.77-15.76V303.64a17.15,17.15,0,0,1,3.22-.31h2.09A17,17,0,0,1,490.35,320.29Z"/><path class="cls-13" d="M474.6,309v7.3c0,1.94-1,3.5-2.11,3.5h-.27c-1.17,0-2.12-1.56-2.12-3.5V309a4.37,4.37,0,0,1,1-2.95,1.53,1.53,0,0,1,1.13-.55h.27C473.65,305.52,474.6,307.09,474.6,309Z"/><path class="cls-13" d="M326.68,320.3v35.32a17,17,0,0,1-16.95,17h-2.09a17,17,0,0,1-17-17V320.3a17,17,0,0,1,17-17h2.09A17,17,0,0,1,326.68,320.3Z"/><path class="cls-14" d="M326.68,320.29v25.83a16.94,16.94,0,0,1-9.1,2.64H315.5a17,17,0,0,1-17-17V306a16.66,16.66,0,0,1,5.88-2.35,17.07,17.07,0,0,1,3.22-.31h2.09A17,17,0,0,1,326.68,320.29Z"/><path class="cls-15" d="M326.68,320.29v15.35a15.74,15.74,0,0,1-4.57.67h-1.94a15.76,15.76,0,0,1-15.76-15.76V303.64a17.07,17.07,0,0,1,3.22-.31h2.09A17,17,0,0,1,326.68,320.29Z"/><path class="cls-13" d="M310.93,309v7.3c0,1.94-.95,3.5-2.12,3.5h-.26c-1.17,0-2.12-1.56-2.12-3.5V309a4.37,4.37,0,0,1,1-2.95,1.57,1.57,0,0,1,1.14-.55h.26C310,305.52,310.93,307.09,310.93,309Z"/><path class="cls-16" d="M521.58,463.3v35.14a22.23,22.23,0,0,1-22.23,22.25H289.17a22.24,22.24,0,0,1-22.23-22.25V463.3a22.24,22.24,0,0,1,22.23-22.24H499.35A22.23,22.23,0,0,1,521.58,463.3Z"/><path class="cls-17" d="M289.17,514.54a16.1,16.1,0,0,1-16.08-16.1V463.3a16.1,16.1,0,0,1,16.08-16.09H499.35a16.11,16.11,0,0,1,16.09,16.09v35.14a16.11,16.11,0,0,1-16.09,16.1Z"/><rect class="cls-18" x="304.38" y="441.06" width="13.58" height="79.62"/><rect class="cls-18" x="387.47" y="441.06" width="13.59" height="79.62"/><rect class="cls-18" x="470.57" y="441.06" width="13.58" height="79.62"/><path class="cls-19" d="M627.53,527.9,520.41,632.63H275.28l-51.57-53.94c5.86-3.84,12.09-6.88,18.7-6.74,12.77.26,23,12,34.31,18.9a49.59,49.59,0,0,0,38.69,5.78c11-3,21-9.73,31.44-14.83s22.21-8.55,33-4.56c7.43,2.74,13.65,8.71,20.5,13.09a52.85,52.85,0,0,0,55.22,1.17c9.17-5.36,17-13.37,25.73-19.7s19-11,29-8.72c6.71,1.55,12.67,6.11,19.33,7.86,14.74,3.85,29.36-6.62,40.78-18.3s22.23-25.51,36.71-30.58c6.64-2.34,14.8-2.13,19.32,4.08A14.58,14.58,0,0,1,627.53,527.9Z"/><rect class="cls-8" x="229.85" y="218.88" width="315.22" height="16.44" rx="8.22"/></g></g></svg>