<svg id="Layer_1" data-name="Layer 1" xmlns="http://www.w3.org/2000/svg" xmlns:xlink="http://www.w3.org/1999/xlink" viewBox="0 0 800 800"><defs><style>.cls-1,.cls-20{fill:none;}.cls-2{clip-path:url(#clip-path);}.cls-3{clip-path:url(#clip-path-2);}.cls-4{fill:#ffb657;}.cls-5{fill:url(#linear-gradient);}.cls-6{fill:url(#linear-gradient-2);}.cls-21,.cls-7{fill:#797368;}.cls-8{fill:#a1998a;}.cls-9{fill:#96fea7;}.cls-10{fill:#cf5e38;}.cls-11{fill:#555459;}.cls-12{fill:#e30000;}.cls-13{fill:#231c14;}.cls-14{fill:#453f39;}.cls-15{fill:#fff;}.cls-16{fill:#f20530;}.cls-17{fill:#f0d94f;}.cls-18{fill:#fefefe;}.cls-19{fill:#b2b7af;}.cls-20{stroke:#fff;stroke-linecap:round;stroke-miterlimit:10;stroke-width:4.55px;}.cls-21{opacity:0.33;}</style><clipPath id="clip-path"><rect class="cls-1" x="42.34" y="42.34" width="715.32" height="715.32" rx="108.96" transform="translate(800 0) rotate(90)"/></clipPath><clipPath id="clip-path-2"><rect class="cls-1" width="800" height="800"/></clipPath><linearGradient id="linear-gradient" x1="509.94" y1="396.33" x2="721.39" y2="396.33" gradientUnits="userSpaceOnUse"><stop offset="0" stop-color="#f2de79"/><stop offset="1" stop-color="#f2c15e"/></linearGradient><linearGradient id="linear-gradient-2" x1="324.99" y1="396.33" x2="-29.31" y2="396.33" xlink:href="#linear-gradient"/></defs><title>Robot 3</title><g class="cls-2"><g class="cls-3"><rect class="cls-4" x="-44.92" y="-52.84" width="877.21" height="885.14"/><path class="cls-5" d="M819.08-89.83,509.94,219.3V552.22L840.22,882.49S815.12-85.87,819.08-89.83Z"/><path class="cls-6" d="M-5.28-89.83,303.85,219.3V552.22L-26.42,882.49S-1.32-85.87-5.28-89.83Z"/><rect class="cls-7" x="259.09" y="160.65" width="93.34" height="10.01" transform="translate(471.42 -140.1) rotate(90)"/><polygon class="cls-7" points="291.48 111.5 239.92 75.58 235.86 80.83 287.43 116.74 291.48 111.5"/><path class="cls-8" d="M242.81,145l61.3-87.4a53.67,53.67,0,0,1-61.3,87.4Z"/><circle class="cls-9" cx="241.71" cy="81.23" r="9.82"/><rect class="cls-10" x="224.13" y="200.4" width="163.26" height="16.41"/><path class="cls-10" d="M525.4,713.4H279.26A56.69,56.69,0,0,1,320.19,696H484.46A56.72,56.72,0,0,1,525.4,713.4Z"/><path class="cls-11" d="M326.59,689.74H454c5.85,0,11.74.17,17.6,0h.25c3.65,0,3.66-5.69,0-5.69H344.44c-5.86,0-11.74-.17-17.6,0h-.25c-3.66,0-3.66,5.69,0,5.69Z"/><path class="cls-11" d="M326.59,676.47H454c5.85,0,11.74.18,17.6,0h.25c3.65,0,3.66-5.68,0-5.68H344.44c-5.86,0-11.74-.17-17.6,0h-.25c-3.66,0-3.66,5.68,0,5.68Z"/><path class="cls-11" d="M326.59,663.21H454c5.85,0,11.74.18,17.6,0h.25c3.65,0,3.66-5.68,0-5.68H344.44c-5.86,0-11.74-.17-17.6,0h-.25c-3.66,0-3.66,5.68,0,5.68Z"/><path class="cls-11" d="M326.59,650H454c5.85,0,11.74.18,17.6,0h.25c3.65,0,3.66-5.68,0-5.68H344.44c-5.86,0-11.74-.17-17.6,0h-.25c-3.66,0-3.66,5.68,0,5.68Z"/><path class="cls-11" d="M326.59,636.69H454c5.85,0,11.74.17,17.6,0h.25c3.65,0,3.66-5.68,0-5.68H344.44c-5.86,0-11.74-.17-17.6,0h-.25c-3.66,0-3.66,5.68,0,5.68Z"/><rect class="cls-8" x="174.43" y="212.33" width="454.55" height="454.55"/><polygon class="cls-12" points="628.98 212.33 628.98 299.94 541.37 212.33 628.98 212.33"/><polygon class="cls-12" points="175.68 212.33 175.68 299.94 263.3 212.33 175.68 212.33"/><circle class="cls-7" cx="401.71" cy="365.44" r="96.77" transform="translate(-140.75 391.09) rotate(-45)"/><circle class="cls-13" cx="401.71" cy="365.44" r="85.4"/><rect class="cls-14" x="313.76" y="524.08" width="175.58" height="142.23"/><rect class="cls-12" x="594.03" y="439.61" width="34.95" height="226.71"/><rect class="cls-12" x="174.43" y="439.6" width="34.96" height="226.71"/><rect class="cls-15" x="313.76" y="524.08" width="175.58" height="40.9"/><rect class="cls-15" x="313.76" y="637.62" width="175.58" height="28.68"/><circle class="cls-16" cx="402.47" cy="385.4" r="45.91"/><circle class="cls-17" cx="402.81" cy="404.29" r="21.9"/><circle class="cls-18" cx="403.24" cy="409.9" r="9.67"/><rect class="cls-19" x="347.46" y="524.08" width="12.55" height="40.9"/><rect class="cls-19" x="393.56" y="524.08" width="12.55" height="40.9"/><rect class="cls-19" x="435.84" y="524.08" width="12.55" height="40.9"/><rect class="cls-19" x="347.46" y="637.62" width="12.55" height="28.68"/><rect class="cls-19" x="393.56" y="637.62" width="12.55" height="28.68"/><rect class="cls-19" x="435.84" y="637.62" width="12.55" height="28.68"/><rect class="cls-12" x="332.44" y="230.33" width="160.97" height="20.72" rx="7.6"/><path class="cls-20" d="M353.73,308a71.06,71.06,0,0,1,45.48-16.38"/><path class="cls-21" d="M629,515.66V666.88H302.85c2.34-3.17,6.5-4.58,10.91-5.15a49.4,49.4,0,0,1,6.93-.34q13.4.21,26.77.23l12.55,0q16.77-.08,33.56-.43c4.18-.08,8.36-.19,12.54-.3q8.06-.23,16.09-.5,6.82-.23,13.64-.52,6.27-.26,12.55-.56c5.2-.24,10.39-.51,15.6-.79,8.43-.47,17.11-1.06,25.35-2.87a57.26,57.26,0,0,0,20.22-8.18c16.28-11,25.08-32.23,43.57-38.82,8-2.86,17.07-2.53,24.69-6.33,8-4,13.07-11.74,16.21-20.33a74.8,74.8,0,0,0,3-10.8c2.51-12.39,3.25-25.49,9.31-36.57C611,526.14,619.87,518.33,629,515.66Z"/></g></g></svg>