<svg id="Layer_1" data-name="Layer 1" xmlns="http://www.w3.org/2000/svg" xmlns:xlink="http://www.w3.org/1999/xlink" viewBox="0 0 800 800"><defs><style>.cls-1,.cls-20{fill:none;}.cls-2{clip-path:url(#clip-path);}.cls-3{clip-path:url(#clip-path-2);}.cls-4{fill:#ff66d2;}.cls-5{fill:url(#linear-gradient);}.cls-6{fill:url(#linear-gradient-2);}.cls-7{fill:#137ac1;}.cls-8{fill:#36a2c2;}.cls-9{fill:#1b5161;}.cls-10,.cls-9{opacity:0.33;}.cls-10{fill:#297a92;}.cls-11{fill:#3cafe7;}.cls-12{fill:#403d3c;}.cls-13{fill:#231c14;}.cls-14{fill:#333;}.cls-15{fill:#f0d94f;}.cls-16{fill:#82d0fa;}.cls-17{fill:#fff;}.cls-18{fill:#d92131;}.cls-19{fill:#011126;}.cls-20{stroke:#fff;stroke-linecap:round;stroke-miterlimit:10;stroke-width:4.8px;}.cls-21{fill:#150259;}</style><clipPath id="clip-path"><rect class="cls-1" x="42.34" y="42.34" width="715.32" height="715.32" rx="108.96" transform="translate(800 0) rotate(90)"/></clipPath><clipPath id="clip-path-2"><rect class="cls-1" width="800" height="800"/></clipPath><linearGradient id="linear-gradient" x1="509.94" y1="396.33" x2="840.22" y2="396.33" gradientUnits="userSpaceOnUse"><stop offset="0" stop-color="#ff8cc9"/><stop offset="1" stop-color="#ff66d2"/></linearGradient><linearGradient id="linear-gradient-2" x1="-1630.24" y1="396.33" x2="-1299.96" y2="396.33" gradientTransform="matrix(-1, 0, 0, 1, -1326.38, 0)" xlink:href="#linear-gradient"/></defs><title>Robot 6</title><g class="cls-2"><g class="cls-3"><rect class="cls-4" x="-44.92" y="-52.84" width="877.21" height="885.14"/><path class="cls-5" d="M819.08-89.83,509.94,219.3V552.22L840.22,882.49S815.12-85.87,819.08-89.83Z"/><path class="cls-6" d="M-5.28-89.83,303.85,219.3V552.22L-26.42,882.49S-1.32-85.87-5.28-89.83Z"/><rect class="cls-7" x="180.75" y="594.66" width="438.5" height="77.59"/><polygon class="cls-8" points="640.94 345.18 640.94 594.1 629.88 605.15 614.38 620.66 187.25 620.66 160.94 594.34 160.94 345.18 204.72 287.9 242.31 238.75 281.98 186.85 283.9 184.34 517.99 184.34 526.22 195.1 559.58 238.75 597.15 287.9 640.94 345.18"/><path class="cls-9" d="M640.94,507.27V594.1l-11.05,11.06-15.51,15.5H393.1a26.92,26.92,0,0,1-.67-16.08c3.85-13.27,17.64-18.3,29.42-17.63s23.56,5.1,35.19,2.75c22.88-4.62,37.41-33.4,59.69-41.22,23.22-8.16,51.94,7.37,70.65-10.94,4.14-4,7.25-9.41,11.16-13.79C606.52,514.82,625.17,507.26,640.94,507.27Z"/><path class="cls-10" d="M526.22,195.11q-53.62.06-107.23.1c-27.56,0-55.1,0-82.65-.26-16-.17-32.31-.48-47.82-4.68-2.35-.64-4.8-1.43-6.41-3.26l-.13-.16,1.92-2.51H518Z"/><path class="cls-10" d="M640.94,436.33V466.4c-1.67.17-3.34.29-5,.4-117.64,7.93-235.73,10.8-353.49,4.92-40.9-2.05-82.15-5.21-121.53-16.35V450c6.8-3.5,15.12-4.26,22.94-4.72,34.18-2,68.43-2.48,102.65-2.91l328.62-4.13C622.13,438.19,631.84,436.73,640.94,436.33Z"/><path class="cls-11" d="M371.45,96.33h59a87.83,87.83,0,0,1,87.83,87.83v0a0,0,0,0,1,0,0H283.62a0,0,0,0,1,0,0v0a87.83,87.83,0,0,1,87.83-87.83Z"/><rect class="cls-12" x="347.09" y="141.12" width="105.83" height="522.77" rx="17.31" transform="translate(802.5 2.5) rotate(90)"/><rect class="cls-13" x="150.62" y="361.59" width="498.77" height="81.83"/><rect class="cls-14" x="150.62" y="391.74" width="498.77" height="26.96"/><path class="cls-15" d="M378.84,137.84c0,6.26.24,11.9,7.29,21.61,1.82,5.1,2.79,9.11,2.79,12.76l1.58,2.18a52.08,52.08,0,0,0,9.71.73h1.46a52.24,52.24,0,0,0,9.72-.73l1.58-2.18c0-3.65,1-7.66,2.79-12.76,7-9.71,7.29-15.35,7.29-21.61C423.05,108.31,378.84,108.31,378.84,137.84Z"/><rect class="cls-16" x="259.7" y="172.17" width="276.33" height="12.17"/><path class="cls-17" d="M483.19,419.74V385.26a16.56,16.56,0,0,0-16.55-16.55h-2a16.54,16.54,0,0,0-16.55,16.55v34.48a16.52,16.52,0,0,0,7.67,13.95,16.28,16.28,0,0,0,8.88,2.59h2A16.55,16.55,0,0,0,483.19,419.74Z"/><path class="cls-18" d="M483.18,419.74v-25.2A16.52,16.52,0,0,0,474.3,392h-2a16.56,16.56,0,0,0-16.56,16.56v25.17a16.15,16.15,0,0,0,5.74,2.3,17.06,17.06,0,0,0,3.14.3h2A16.56,16.56,0,0,0,483.18,419.74Z"/><path class="cls-15" d="M483.18,419.74v-15a15.28,15.28,0,0,0-4.46-.66h-1.89a15.39,15.39,0,0,0-15.38,15.39V436a17.06,17.06,0,0,0,3.14.3h2A16.56,16.56,0,0,0,483.18,419.74Z"/><path class="cls-17" d="M481.34,412.71v7.12c0,1.89-.93,3.42-2.07,3.42H479c-1.15,0-2.07-1.53-2.07-3.42v-7.12a4.24,4.24,0,0,1,1-2.88,1.53,1.53,0,0,1,1.11-.54h.25C480.41,409.29,481.34,410.82,481.34,412.71Z"/><path class="cls-17" d="M323.47,419.74V385.26a16.56,16.56,0,0,0-16.55-16.55h-2a16.54,16.54,0,0,0-16.55,16.55v34.48A16.52,16.52,0,0,0,296,433.69a16.28,16.28,0,0,0,8.88,2.59h2A16.55,16.55,0,0,0,323.47,419.74Z"/><path class="cls-18" d="M323.46,419.74v-25.2a16.54,16.54,0,0,0-8.88-2.58h-2A16.56,16.56,0,0,0,296,408.52v25.17a16.15,16.15,0,0,0,5.74,2.3,17.06,17.06,0,0,0,3.14.3h2A16.56,16.56,0,0,0,323.46,419.74Z"/><path class="cls-15" d="M323.46,419.74v-15a15.38,15.38,0,0,0-4.46-.66h-1.89a15.39,15.39,0,0,0-15.38,15.39V436a17.06,17.06,0,0,0,3.14.3h2A16.56,16.56,0,0,0,323.46,419.74Z"/><path class="cls-17" d="M321.65,412.71v7.12c0,1.89-.93,3.42-2.07,3.42h-.25c-1.15,0-2.07-1.53-2.07-3.42v-7.12a4.24,4.24,0,0,1,1-2.88,1.53,1.53,0,0,1,1.11-.54h.25C320.72,409.29,321.65,410.82,321.65,412.71Z"/><rect class="cls-13" x="321.65" y="523.32" width="134.06" height="8.72"/><polygon class="cls-19" points="597.15 287.9 348.47 287.9 348.47 238.75 559.58 238.75 597.15 287.9"/><polygon class="cls-19" points="296 238.75 296 287.9 204.73 287.9 242.31 238.75 296 238.75"/><rect class="cls-19" x="623.23" y="487.65" width="17.71" height="107"/><rect class="cls-19" x="160.94" y="487.65" width="17.71" height="107"/><polyline class="cls-20" points="161.1 432.16 161.1 372.71 226.9 372.71"/><line class="cls-20" x1="241.56" y1="372.71" x2="259.7" y2="372.71"/><rect class="cls-21" x="259.83" y="307.16" width="100.76" height="21.34" rx="8.02" transform="translate(-54.23 64) rotate(-10.84)"/><rect class="cls-21" x="416.78" y="307.16" width="100.76" height="21.34" rx="8.02" transform="translate(80.15 -93.85) rotate(12.54)"/></g></g></svg>