<svg id="Layer_1" data-name="Layer 1" xmlns="http://www.w3.org/2000/svg" xmlns:xlink="http://www.w3.org/1999/xlink" viewBox="0 0 800 800"><defs><style>.cls-1,.cls-14,.cls-19,.cls-20{fill:none;}.cls-2{clip-path:url(#clip-path);}.cls-3{clip-path:url(#clip-path-2);}.cls-4{fill:#8cffa9;}.cls-5{fill:url(#linear-gradient);}.cls-6{fill:url(#linear-gradient-2);}.cls-7{fill:#637f92;}.cls-8{fill:#3f3b48;}.cls-9{fill:#525253;}.cls-10{fill:#a4a4a6;}.cls-11{fill:#7b7b7d;opacity:0.33;}.cls-12{fill:#2a4359;}.cls-13{fill:#253746;}.cls-14,.cls-19{stroke:#3f3b48;}.cls-14,.cls-19,.cls-20{stroke-miterlimit:10;}.cls-14{stroke-width:3.84px;}.cls-15{fill:#ff3e77;}.cls-16{fill:#52656b;}.cls-17{fill:#231c14;}.cls-18{fill:#f20530;}.cls-19{stroke-width:4.8px;}.cls-20{stroke:#253746;stroke-width:0.96px;}.cls-21{fill:#f0d94f;}.cls-22{fill:#fefefe;}</style><clipPath id="clip-path"><rect class="cls-1" x="42.34" y="42.34" width="715.32" height="715.32" rx="108.96" transform="translate(800 0) rotate(90)"/></clipPath><clipPath id="clip-path-2"><rect class="cls-1" width="800" height="800"/></clipPath><linearGradient id="linear-gradient" x1="509.94" y1="396.33" x2="840.22" y2="396.33" gradientUnits="userSpaceOnUse"><stop offset="0" stop-color="#d9ffea"/><stop offset="1" stop-color="#8cffa9"/></linearGradient><linearGradient id="linear-gradient-2" x1="-6211.8" y1="396.33" x2="-5881.53" y2="396.33" gradientTransform="matrix(-1, 0, 0, 1, -5907.95, 0)" xlink:href="#linear-gradient"/></defs><title>Robot 8</title><g class="cls-2"><g class="cls-3"><rect class="cls-4" x="-44.92" y="-52.84" width="877.21" height="885.14"/><path class="cls-5" d="M819.08-89.83,509.94,219.3V552.22L840.22,882.49S815.12-85.87,819.08-89.83Z"/><path class="cls-6" d="M-5.28-89.83,303.85,219.3V552.22L-26.42,882.49S-1.32-85.87-5.28-89.83Z"/><path class="cls-7" d="M197.13,334l151-112.23L184,164.06A12.5,12.5,0,0,0,168,171.71Z"/><path class="cls-8" d="M179.27,174.1a2,2,0,0,1,.53-.08,1.83,1.83,0,0,1,.61.11L325.67,225.2l-121.08,90Z"/><path class="cls-7" d="M602.87,334l-151-112.23,164.21-57.73a12.5,12.5,0,0,1,16,7.65Z"/><path class="cls-8" d="M620.73,174.1a2,2,0,0,0-.53-.08,1.83,1.83,0,0,0-.61.11L474.33,225.2l121.08,90Z"/><path class="cls-9" d="M221.44,653.55H578.22c13.42,0,24.29-12.66,24.29-28.28v-44.5a47.18,47.18,0,0,0-47.18-47.18h-311a47.18,47.18,0,0,0-47.18,47.18v44.5C197.15,640.89,208,653.55,221.44,653.55Z"/><path class="cls-10" d="M592.76,260.16,552.51,559.61c0,10.32-3.83,19.4-9.64,24.68a17.35,17.35,0,0,1-11.72,4.84s-36.7,24.52-79.68,38.11c-16.47,5.21-33.88,8.81-50.48,8.81-15.36,0-31.39-3.08-46.73-7.67h0C309.75,615.09,271,589.13,271,589.13a16.4,16.4,0,0,1-8.74-2.58c-7.44-4.62-12.63-14.94-12.63-26.94L216.37,315.94l-.1-.69-.88-6.5-6.63-48.59a27.09,27.09,0,0,1,27.09-27.09H565.66A27.09,27.09,0,0,1,592.76,260.16Z"/><path class="cls-11" d="M330,240.77c.05,4.64-5.08,7.39-9.51,8.77A104,104,0,0,1,283.34,254a46,46,0,0,1,11.94,8.27c1,.91,1.92,2,1.86,3.32s-1.33,2.51-2.53,3.32a50.78,50.78,0,0,1-26.18,8.67c3.7,3.9,3.22,10.46.23,14.95s-7.86,7.29-12.67,9.7a153.11,153.11,0,0,1-29,11,68.81,68.81,0,0,1-10.68,2l-.88-6.5-6.63-48.59a27.09,27.09,0,0,1,27.09-27.09h89.93c.54.59,1.06,1.18,1.55,1.81C328.71,236.6,330,238.57,330,240.77Z"/><path class="cls-12" d="M542.87,584.29a17.35,17.35,0,0,1-11.72,4.84s-36.7,24.52-79.68,38.11l-6.13-11.37L534.08,568Z"/><path class="cls-12" d="M361,615.87l-6.74,12.51h0C309.74,615.09,271,589.13,271,589.13a16.38,16.38,0,0,1-8.75-2.59l10-18.53Z"/><polygon class="cls-13" points="488.14 308.75 488.14 315.94 216.37 315.94 215.39 308.75 488.14 308.75"/><rect class="cls-13" x="521.15" y="317.63" width="67.32" height="7.19"/><path class="cls-14" d="M443.09,543.54a43.28,43.28,0,0,1-42.33-34.24,43.3,43.3,0,0,1-42.33,34.24"/><polygon class="cls-8" points="401.71 514.93 397.91 514.93 348.05 449.28 451.57 449.28 401.71 514.93"/><rect class="cls-15" x="392.21" y="233.07" width="18.36" height="66.23"/><rect class="cls-15" x="423.92" y="233.07" width="18.36" height="47.84"/><rect class="cls-15" x="359.23" y="233.07" width="18.36" height="47.84"/><path class="cls-16" d="M294.06,455.41a50.83,50.83,0,0,1,0-101.66H509.75a50.83,50.83,0,1,1,0,101.66Z"/><rect class="cls-17" x="251.88" y="362.39" width="300.06" height="84.38" rx="42.19"/><path class="cls-18" d="M508.42,366.37h0a0,0,0,0,1,0,0v0a77.11,77.11,0,0,1-77.11,77.11h0a0,0,0,0,1,0,0v0A77.11,77.11,0,0,1,508.42,366.37Z" transform="translate(86.09 -82.37) rotate(11.02)"/><path class="cls-18" d="M292.81,366.37h0a77.11,77.11,0,0,1,77.11,77.11v0a0,0,0,0,1,0,0h0a77.11,77.11,0,0,1-77.11-77.11v0A0,0,0,0,1,292.81,366.37Z" transform="translate(734.04 739.02) rotate(168.98)"/><polyline class="cls-19" points="473.13 493.25 485.79 475.98 608.94 459.87"/><polyline class="cls-19" points="472.77 508.94 489.39 495.45 612.61 511.07"/><polyline class="cls-19" points="472.77 526.04 491.42 515.52 610.28 551.55"/><polyline class="cls-19" points="326.87 493.25 314.21 475.98 191.06 459.87"/><polyline class="cls-19" points="327.23 508.94 310.61 495.45 187.39 511.07"/><polyline class="cls-19" points="327.23 526.04 308.58 515.52 189.72 551.55"/><rect class="cls-13" x="486.88" y="297.76" width="23.78" height="23.78"/><rect class="cls-20" x="497.55" y="308.86" width="23.78" height="23.78"/><circle class="cls-21" cx="477.88" cy="404.77" r="17.72"/><circle class="cls-22" cx="486.17" cy="406.56" r="10.62"/><circle class="cls-21" cx="337.42" cy="404.77" r="17.72"/><circle class="cls-22" cx="345.71" cy="406.56" r="10.62"/></g></g></svg>