<svg id="Layer_1" data-name="Layer 1" xmlns="http://www.w3.org/2000/svg" xmlns:xlink="http://www.w3.org/1999/xlink" viewBox="0 0 800 800"><defs><style>.cls-1,.cls-14{fill:none;}.cls-2{clip-path:url(#clip-path);}.cls-3{clip-path:url(#clip-path-2);}.cls-4{fill:#f66;}.cls-5{fill:url(#linear-gradient);}.cls-6{fill:url(#linear-gradient-2);}.cls-7{fill:#a3b4d6;}.cls-8{fill:#525a6b;opacity:0.33;}.cls-9{fill:#5a6e5b;}.cls-10{fill:#cecfdb;}.cls-11{fill:#2e6db4;}.cls-12{fill:#52656b;}.cls-13{fill:#231c14;}.cls-14{stroke:#fff;stroke-linecap:round;stroke-miterlimit:10;stroke-width:4.42px;}.cls-15{fill:#fff7ff;}.cls-16{fill:#453f39;}</style><clipPath id="clip-path"><rect class="cls-1" x="42.34" y="42.34" width="715.32" height="715.32" rx="108.96" transform="translate(800 0) rotate(90)"/></clipPath><clipPath id="clip-path-2"><rect class="cls-1" width="800" height="800"/></clipPath><linearGradient id="linear-gradient" x1="422.19" y1="396.33" x2="689.81" y2="396.33" gradientUnits="userSpaceOnUse"><stop offset="0" stop-color="#f2af87"/><stop offset="1" stop-color="#f27f6c"/></linearGradient><linearGradient id="linear-gradient-2" x1="410.97" y1="396.33" x2="-30.02" y2="396.33" xlink:href="#linear-gradient"/></defs><title>Robot 4</title><g class="cls-2"><g class="cls-3"><rect class="cls-4" x="-44.92" y="-52.84" width="877.21" height="885.14"/><path class="cls-5" d="M819.08-89.83,422.19,240.71l87.75,311.51L840.22,882.49S815.12-85.87,819.08-89.83Z"/><path class="cls-6" d="M-5.28-89.83,384.66,240.71,303.85,552.22-26.42,882.49S-1.32-85.87-5.28-89.83Z"/><path class="cls-7" d="M628.77,428.31V652.43H186.47V428.31c0-120.5,97.68-218.18,218.18-218.18h6C531.09,210.13,628.77,307.81,628.77,428.31Z"/><path class="cls-8" d="M415,652.43H186.47V555.11c4.65-7.86,9.91-13.88,14-10.92,10.92,7.91,2.51,25,3.76,38.42.3,3.33,1.79,7.1,5,7.91,4.78,1.18,8.18-4.71,12.83-6.34,6.33-2.22,12.44,4.14,15,10.35s4,13.56,9.49,17.4c8.84,6.17,21.55-.92,31.63,2.88,4.51,1.69,7.93,5.36,11.78,8.26,12.36,9.31,29,10.46,44.44,9.26S365.32,628,380.65,630C394.82,631.91,409.35,639.59,415,652.43Z"/><path class="cls-9" d="M207.67,412.56a4.92,4.92,0,0,1,4.25-4.29,4.63,4.63,0,0,1,1.47,4,10,10,0,0,1-1.57,4.13c-.61,1-1.5,2.1-2.69,2s-2-1.34-2.21-2.54a5.68,5.68,0,0,1,.79-3.9"/><path class="cls-9" d="M205,375.58c.13-.33.32-.7.68-.76a1,1,0,0,1,.75.32,6.52,6.52,0,0,1,2,4.41,16.72,16.72,0,0,1-.51,4.92,71.78,71.78,0,0,1-4.9,14.64,1.43,1.43,0,0,1-.63.79c-.49.21-1-.19-1.35-.63-1-1.38-1-3.22-.82-4.9A67.85,67.85,0,0,1,205,375.58Z"/><path class="cls-9" d="M604.7,371.41c-.83-1.76-1.85-3.61-3.62-4.42a17.59,17.59,0,0,0-2.29,9.4c0,3.27.51,6.52.71,9.78a26.6,26.6,0,0,0,.86,6.91c.73,2.21,2.4,4.29,4.68,4.75a1.35,1.35,0,0,0,.6,0,1.37,1.37,0,0,0,.67-.49,12.78,12.78,0,0,0,2.86-7.77C609.53,383.13,607.41,377.16,604.7,371.41Z"/><path class="cls-9" d="M617.56,401.92a2.83,2.83,0,0,0-1.29-3.61,20.54,20.54,0,0,0-.08,13.56,11.48,11.48,0,0,0,3-11"/><path class="cls-10" d="M154.53,648h502a20,20,0,0,1,20,20v21.12a0,0,0,0,1,0,0h-542a0,0,0,0,1,0,0V668A20,20,0,0,1,154.53,648Z"/><rect class="cls-11" x="288.89" y="338.66" width="92.85" height="19.66" rx="7.39"/><rect class="cls-11" x="433.51" y="338.66" width="92.85" height="19.66" rx="7.39"/><rect class="cls-12" x="333.59" y="263.78" width="148.07" height="367.73" rx="66.69" transform="translate(855.27 40.03) rotate(90)"/><rect class="cls-13" x="234.81" y="384.67" width="345.62" height="125.95" rx="55.63"/><path class="cls-14" d="M288.89,395.4C266,395.4,249.2,411.57,249.2,432"/><line class="cls-14" x1="249.2" y1="440.33" x2="249.2" y2="462.61"/><circle class="cls-15" cx="342.17" cy="448.75" r="65.45"/><rect class="cls-16" x="328.66" y="431.22" width="27.02" height="32.87" rx="10.97"/><circle class="cls-15" cx="473.07" cy="448.75" r="65.45"/><rect class="cls-16" x="459.56" y="431.22" width="27.02" height="32.87" rx="10.97"/><path class="cls-9" d="M519.73,629.81c-.29,4.42-.61,9-2.66,12.91s-6.33,7-10.7,6.31c-5.23-.88-8.11-6.42-10.13-11.33,1.62,4.65,2.07,9.91.16,14.45s-6.56,8.09-11.47,7.75c-5.38-.37-9.62-5.18-11.08-10.37s-.75-10.72,0-16.06c1.59,5.2-3.94,10.62-9.37,10.23s-9.8-5-11.59-10.15-1.52-10.74-1.24-16.17c17.51,2.43,36.83,3.27,51.27-6.93,2.7-1.91,5.16-4.16,8-5.89C527.37,594.5,520.35,620.08,519.73,629.81Z"/><rect class="cls-15" x="293.58" y="547.14" width="228.09" height="71.83" rx="5.89"/><rect class="cls-10" x="348.59" y="547.14" width="11.45" height="71.83"/><rect class="cls-10" x="301.11" y="547.14" width="11.45" height="71.83"/><rect class="cls-10" x="401.9" y="547.14" width="11.45" height="71.83"/><rect class="cls-10" x="455.21" y="547.14" width="11.45" height="71.83"/><rect class="cls-10" x="501.95" y="547.14" width="11.45" height="71.83"/><rect class="cls-10" x="370.01" y="204.95" width="75.23" height="21.05"/><rect class="cls-10" x="351.67" y="153.8" width="107.11" height="16.25" transform="translate(567.14 -243.3) rotate(90)"/><circle class="cls-10" cx="403.42" cy="106.49" r="21.69"/></g></g></svg>