<svg id="Layer_1" data-name="Layer 1" xmlns="http://www.w3.org/2000/svg" xmlns:xlink="http://www.w3.org/1999/xlink" viewBox="0 0 800 800"><defs><style>.cls-1,.cls-20{fill:none;}.cls-2{clip-path:url(#clip-path);}.cls-3{clip-path:url(#clip-path-2);}.cls-4{fill:#668cff;}.cls-5{fill:url(#linear-gradient);}.cls-6{fill:url(#linear-gradient-2);}.cls-7{fill:#666;}.cls-8{fill:#f2441d;}.cls-9{fill:#8c8b85;}.cls-10{fill:#464643;}.cls-11{fill:#bbb9b1;}.cls-12{fill:#423633;opacity:0.33;}.cls-13{fill:#231c14;}.cls-14{fill:#0d0d0d;}.cls-15{fill:#f20530;}.cls-16{fill:#f0d94f;}.cls-17{fill:#fefefe;}.cls-18{fill:#400106;}.cls-19{fill:#fff;}.cls-20{stroke:#fff;stroke-linecap:round;stroke-miterlimit:10;stroke-width:4.8px;}</style><clipPath id="clip-path"><rect class="cls-1" x="42.34" y="42.34" width="715.32" height="715.32" rx="108.96" transform="translate(800 0) rotate(90)"/></clipPath><clipPath id="clip-path-2"><rect class="cls-1" width="800" height="800"/></clipPath><linearGradient id="linear-gradient" x1="509.94" y1="396.33" x2="840.22" y2="396.33" gradientUnits="userSpaceOnUse"><stop offset="0" stop-color="#b2beff"/><stop offset="1" stop-color="#668cff"/></linearGradient><linearGradient id="linear-gradient-2" x1="509.94" y1="396.33" x2="840.22" y2="396.33" gradientTransform="matrix(-1, 0, 0, 1, 813.8, 0)" xlink:href="#linear-gradient"/></defs><title>Robot 1</title><g class="cls-2"><g class="cls-3"><rect class="cls-4" x="-44.92" y="-52.84" width="877.21" height="885.14"/><path class="cls-5" d="M819.08-89.83,509.94,219.3V552.22L840.22,882.49S815.12-85.87,819.08-89.83Z"/><path class="cls-6" d="M-5.28-89.83,303.85,219.3V552.22L-26.42,882.49S-1.32-85.87-5.28-89.83Z"/><rect class="cls-7" x="295.5" y="627.76" width="206.71" height="48.14"/><rect class="cls-8" x="222.09" y="146.46" width="347.18" height="45.69"/><rect class="cls-9" x="637.24" y="293.19" width="31.08" height="212.18"/><rect class="cls-9" x="129.39" y="292.68" width="31.08" height="212.18"/><path class="cls-10" d="M668.32,313.21H637.23c-3.86,0-3.86,6,0,6h31.09c3.87,0,3.87-6,0-6Z"/><path class="cls-10" d="M668.32,333.33H637.23c-3.86,0-3.86,6,0,6h31.09c3.87,0,3.87-6,0-6Z"/><path class="cls-10" d="M668.32,353.46H637.23c-3.86,0-3.86,6,0,6h31.09c3.87,0,3.87-6,0-6Z"/><path class="cls-10" d="M668.32,373.58H637.23c-3.86,0-3.86,6,0,6h31.09c3.87,0,3.87-6,0-6Z"/><path class="cls-10" d="M668.32,393.71H637.23c-3.86,0-3.86,6,0,6h31.09c3.87,0,3.87-6,0-6Z"/><path class="cls-10" d="M668.32,413.83H637.23c-3.86,0-3.86,6,0,6h31.09c3.87,0,3.87-6,0-6Z"/><path class="cls-10" d="M668.32,434H637.23c-3.86,0-3.86,6,0,6h31.09c3.87,0,3.87-6,0-6Z"/><path class="cls-10" d="M668.32,454.08H637.23c-3.86,0-3.86,6,0,6h31.09c3.87,0,3.87-6,0-6Z"/><path class="cls-10" d="M668.32,474.2H637.23c-3.86,0-3.86,6,0,6h31.09c3.87,0,3.87-6,0-6Z"/><path class="cls-10" d="M160.48,313.21H129.39c-3.86,0-3.87,6,0,6h31.09c3.86,0,3.87-6,0-6Z"/><path class="cls-10" d="M160.48,333.33H129.39c-3.86,0-3.87,6,0,6h31.09c3.86,0,3.87-6,0-6Z"/><path class="cls-10" d="M160.48,353.46H129.39c-3.86,0-3.87,6,0,6h31.09c3.86,0,3.87-6,0-6Z"/><path class="cls-10" d="M160.48,373.58H129.39c-3.86,0-3.87,6,0,6h31.09c3.86,0,3.87-6,0-6Z"/><path class="cls-10" d="M160.48,393.71H129.39c-3.86,0-3.87,6,0,6h31.09c3.86,0,3.87-6,0-6Z"/><path class="cls-10" d="M160.48,413.83H129.39c-3.86,0-3.87,6,0,6h31.09c3.86,0,3.87-6,0-6Z"/><path class="cls-10" d="M160.48,434H129.39c-3.86,0-3.87,6,0,6h31.09c3.86,0,3.87-6,0-6Z"/><path class="cls-10" d="M160.48,454.08H129.39c-3.86,0-3.87,6,0,6h31.09c3.86,0,3.87-6,0-6Z"/><path class="cls-10" d="M160.48,474.2H129.39c-3.86,0-3.87,6,0,6h31.09c3.86,0,3.87-6,0-6Z"/><path class="cls-11" d="M638.83,303.2V500.55A138.75,138.75,0,0,1,500.08,639.29H297.56A138.74,138.74,0,0,1,158.83,500.55V303.2a143.9,143.9,0,0,1,143.9-143.91H494.91A143.91,143.91,0,0,1,638.83,303.2Z"/><path class="cls-12" d="M387.56,639.29h-90A138.74,138.74,0,0,1,158.83,500.55V454.38c7.77,3.66,9.67,14.11,9.47,22.83-.21,9-1,19.1,5.11,25.67,11.3,12.17,35.3,1.09,46.49,13.38,6.2,6.81,5,17.22,5.72,26.4,1.2,15.57,9,30.13,19.76,41.44s24.35,19.57,38.5,26.17a215,215,0,0,0,72.68,19.32c7,.58,14.06.84,20.64,3.16A26.36,26.36,0,0,1,387.56,639.29Z"/><rect class="cls-7" x="271.4" y="274.11" width="250.73" height="175.12" transform="translate(758.44 -35.1) rotate(90)"/><rect class="cls-13" x="323.33" y="251.06" width="146.87" height="221.23" rx="21.36"/><path class="cls-14" d="M510.27,544.2v11.21a21.84,21.84,0,0,1-19.86,21.76c-.66.06-1.33.1-2,.1H305.13c-.69,0-1.39,0-2.06-.1a21.86,21.86,0,0,1-19.8-21.76V544.2a21.88,21.88,0,0,1,21.86-21.87H488.41a21.88,21.88,0,0,1,21.86,21.87Z"/><circle class="cls-15" cx="409.05" cy="334.83" r="48.48"/><circle class="cls-16" cx="419.89" cy="325.71" r="23.12"/><circle class="cls-17" cx="424.65" cy="322.15" r="10.22"/><rect class="cls-7" x="302.69" y="183.29" width="212.72" height="17.72" rx="8.86"/><path class="cls-18" d="M490.8,574.22a11.41,11.41,0,0,1-.39,2.95c-.66.06-1.33.1-2,.1H305.13c-.69,0-1.39,0-2.06-.1a11.47,11.47,0,0,1,11.11-14.44H479.3a11.52,11.52,0,0,1,11.5,11.49Z"/><path class="cls-19" d="M510,540.54H283.58a21.87,21.87,0,0,1,21.55-18.21H488.41A21.87,21.87,0,0,1,510,540.54Z"/><path class="cls-20" d="M333.06,289.41c-1.18-9.86,0-20.66,9.62-25.46,12-4.8,37.41-2.43,37.41-2.43"/><path class="cls-20" d="M333.06,348.84v-25"/></g></g></svg>