<svg id="Layer_1" data-name="Layer 1" xmlns="http://www.w3.org/2000/svg" xmlns:xlink="http://www.w3.org/1999/xlink" viewBox="0 0 800 800"><defs><style>.cls-1,.cls-18{fill:none;}.cls-2{clip-path:url(#clip-path);}.cls-3{clip-path:url(#clip-path-2);}.cls-4{fill:#ffdf66;}.cls-5{fill:url(#linear-gradient);}.cls-6{fill:url(#linear-gradient-2);}.cls-7{fill:#a6977b;}.cls-8{fill:#555459;}.cls-9{fill:#231c14;}.cls-10{fill:#0b9bd9;}.cls-11{fill:#594f46;}.cls-12{fill:#7d715c;}.cls-12,.cls-16{opacity:0.33;}.cls-13{fill:#52656b;}.cls-14{fill:#fff7ff;}.cls-15{fill:#cecfdb;}.cls-17{fill:#534c3e;}.cls-18{stroke:#fff;stroke-linecap:round;stroke-miterlimit:10;stroke-width:4.8px;}</style><clipPath id="clip-path"><rect class="cls-1" x="42.34" y="42.34" width="715.32" height="715.32" rx="108.96" transform="translate(800 0) rotate(90)"/></clipPath><clipPath id="clip-path-2"><rect class="cls-1" width="800" height="800"/></clipPath><linearGradient id="linear-gradient" x1="509.94" y1="396.33" x2="840.22" y2="396.33" gradientUnits="userSpaceOnUse"><stop offset="0" stop-color="#ffed8c"/><stop offset="1" stop-color="#ffdf66"/></linearGradient><linearGradient id="linear-gradient-2" x1="509.94" y1="396.33" x2="840.22" y2="396.33" gradientTransform="matrix(-1, 0, 0, 1, 813.8, 0)" xlink:href="#linear-gradient"/></defs><title>Robot 5</title><g class="cls-2"><g class="cls-3"><rect class="cls-4" x="-44.92" y="-52.84" width="877.21" height="885.14"/><path class="cls-5" d="M819.08-89.83,509.94,219.3V552.22L840.22,882.49S815.12-85.87,819.08-89.83Z"/><path class="cls-6" d="M-5.28-89.83,303.85,219.3V552.22L-26.42,882.49S-1.32-85.87-5.28-89.83Z"/><path class="cls-7" d="M500.38,645.63H326.92c-33.19,0-60.09,6.1-60.09,13.63v2H560.47v-2C560.47,651.73,533.57,645.63,500.38,645.63Z"/><path class="cls-8" d="M333.67,639H468.15c6.21,0,12.44.16,18.64,0h.26c3.86,0,3.87-6,0-6H352.57c-6.21,0-12.44-.17-18.64,0h-.26c-3.86,0-3.87,6,0,6Z"/><path class="cls-8" d="M333.67,625H468.15c6.21,0,12.44.17,18.64,0h.26c3.86,0,3.87-6,0-6H352.57c-6.21,0-12.44-.17-18.64,0h-.26c-3.86,0-3.87,6,0,6Z"/><path class="cls-8" d="M333.67,611H468.15c6.21,0,12.44.17,18.64,0h.26c3.86,0,3.87-6,0-6H352.57c-6.21,0-12.44-.17-18.64,0h-.26c-3.86,0-3.87,6,0,6Z"/><path class="cls-8" d="M333.67,597H468.15c6.21,0,12.44.17,18.64,0h.26c3.86,0,3.87-6,0-6H352.57c-6.21,0-12.44-.17-18.64,0h-.26c-3.86,0-3.87,6,0,6Z"/><path class="cls-8" d="M333.67,583H468.15c6.21,0,12.44.17,18.64,0h.26c3.86,0,3.87-6,0-6H352.57c-6.21,0-12.44-.17-18.64,0h-.26c-3.86,0-3.87,6,0,6Z"/><path class="cls-9" d="M662.94,357.31h13.73a18.77,18.77,0,0,1,18.77,18.77v2.88a18.77,18.77,0,0,1-18.77,18.77H662.94a0,0,0,0,1,0,0V357.31A0,0,0,0,1,662.94,357.31Z"/><path class="cls-10" d="M116.39,357.31h13.73a18.77,18.77,0,0,1,18.77,18.77v2.88a18.77,18.77,0,0,1-18.77,18.77H116.39a0,0,0,0,1,0,0V357.31a0,0,0,0,1,0,0Z" transform="translate(279.44 749.75) rotate(177.84)"/><rect class="cls-11" x="129.13" y="325.04" width="551" height="107.32"/><path class="cls-7" d="M644.63,355.28V476.92A141.79,141.79,0,0,1,514,618.27c-3.68.29-7.41.43-11.17.43H306.41q-5.64,0-11.16-.43A141.8,141.8,0,0,1,164.63,476.92V355.28c0-72,109.76-194.2,165.56-213.86a41.58,41.58,0,0,1,13.64-2.72H465.45c24.4,0,69.24,34.55,108,78.9S644.63,316,644.63,355.28Z"/><path class="cls-12" d="M644.63,405.92v71A141.79,141.79,0,0,1,514,618.27c-3.68.29-7.41.43-11.17.43h-117q24.39-1.89,48.69-4.6c34.35-3.84,69.54-9.28,99.39-26.7a137.25,137.25,0,0,0,54.95-60.34c9.78-21,14-44.18,21.23-66.25C617,439.94,627.23,419.06,644.63,405.92Z"/><rect class="cls-11" x="294.55" y="230.32" width="235.11" height="21.34" rx="8.02" transform="translate(32.51 -48.52) rotate(7.01)"/><rect class="cls-13" x="324.29" y="179.16" width="160.69" height="399.08" rx="72.37" transform="translate(783.33 -25.93) rotate(90)"/><rect class="cls-9" x="217.09" y="310.36" width="375.08" height="136.69" rx="60.37"/><rect class="cls-14" x="280.86" y="493.73" width="247.53" height="77.96" rx="6.4"/><rect class="cls-15" x="340.56" y="493.73" width="12.42" height="77.96"/><rect class="cls-15" x="289.04" y="493.73" width="12.42" height="77.96"/><rect class="cls-15" x="398.42" y="493.73" width="12.42" height="77.96"/><rect class="cls-15" x="456.27" y="493.73" width="12.42" height="77.96"/><rect class="cls-15" x="507" y="493.73" width="12.42" height="77.96"/><rect class="cls-14" x="297.03" y="397.72" width="29.33" height="35.67" rx="11.91"/><rect class="cls-14" x="470.48" y="397.72" width="29.33" height="35.67" rx="11.91"/><path class="cls-9" d="M695.44,382H710.9l-3-3V540c0,2.15-.12,4.35,0,6.5v.28l3-3H478.54c-3.15,0-6.3,0-9.44,0h-.4c-3.86,0-3.87,6,0,6H701.06c3.14,0,6.29.05,9.44,0h.4a3,3,0,0,0,3-3V399.62c0-6.79.18-13.6,0-20.39V379a3,3,0,0,0-3-3H695.44c-3.86,0-3.87,6,0,6Z"/><rect class="cls-9" x="413.65" y="532.71" width="93.35" height="27.24" rx="7.99"/><path class="cls-10" d="M122,374.51H98.17l3,3V293.43c0-3.88.14-7.8,0-11.68v-.17c0-3.86-6-3.86-6,0v84.08c0,3.89-.14,7.8,0,11.68a1,1,0,0,1,0,.17,3,3,0,0,0,3,3H122c3.86,0,3.87-6,0-6Z"/><circle class="cls-10" cx="98.04" cy="279.34" r="12.02"/><g class="cls-16"><path class="cls-17" d="M573.4,217.6c-11.57.29-23.13-6.7-33-13.63-11.93-8.36-25.63-17.48-39.88-14.43-5.59,1.2-10.77,4.24-16.5,4.62-12.79.84-22.35-11.57-27.31-23.4-2.49-6-4.64-12.36-9.33-16.8-5.27-5-12.94-6.62-20.2-6.59-4,0-8.1.49-11.66,2.31-6,3.08-11.22,10-17.79,8.37-3.74-1-6.23-4.51-9.71-6.22-5.54-2.71-12.22-.14-17.41,3.22s-10.15,7.63-16.26,8.58c-9.86,1.55-19.17-6.57-22.51-16a47,47,0,0,1-1.66-6.24,41.58,41.58,0,0,1,13.64-2.72H465.45C489.85,138.7,534.69,173.25,573.4,217.6Z"/></g><path class="cls-18" d="M257.74,328.08a49.15,49.15,0,0,1,21.13-4.73h59.58"/><path class="cls-18" d="M231.74,380.64V368a42.66,42.66,0,0,1,6.37-22.43"/></g></g></svg>